<mxfile host="app.diagrams.net" agent="Mozilla/5.0 (Windows NT 10.0; Win64; x64; rv:137.0) Gecko/20100101 Firefox/137.0" version="26.2.4">
  <diagram id="C5RBs43oDa-KdzZeNtuy" name="Page-1">
    <mxGraphModel dx="1428" dy="779" grid="1" gridSize="10" guides="1" tooltips="1" connect="1" arrows="1" fold="1" page="1" pageScale="1" pageWidth="827" pageHeight="1169" math="0" shadow="0">
      <root>
        <mxCell id="WIyWlLk6GJQsqaUBKTNV-0" />
        <mxCell id="WIyWlLk6GJQsqaUBKTNV-1" parent="WIyWlLk6GJQsqaUBKTNV-0" />
        <mxCell id="6M3mmVfWSf4sSf63VmGX-6" style="edgeStyle=orthogonalEdgeStyle;rounded=0;orthogonalLoop=1;jettySize=auto;html=1;entryX=0.5;entryY=0;entryDx=0;entryDy=0;movable=1;resizable=1;rotatable=1;deletable=1;editable=1;locked=0;connectable=1;" edge="1" parent="WIyWlLk6GJQsqaUBKTNV-1" source="6M3mmVfWSf4sSf63VmGX-0" target="6M3mmVfWSf4sSf63VmGX-13">
          <mxGeometry relative="1" as="geometry">
            <mxPoint x="390" y="90" as="targetPoint" />
          </mxGeometry>
        </mxCell>
        <mxCell id="6M3mmVfWSf4sSf63VmGX-0" value="Test Runner" style="rounded=0;whiteSpace=wrap;html=1;movable=1;resizable=1;rotatable=1;deletable=1;editable=1;locked=0;connectable=1;" vertex="1" parent="WIyWlLk6GJQsqaUBKTNV-1">
          <mxGeometry x="330" y="10" width="120" height="40" as="geometry" />
        </mxCell>
        <mxCell id="6M3mmVfWSf4sSf63VmGX-23" style="edgeStyle=orthogonalEdgeStyle;rounded=0;orthogonalLoop=1;jettySize=auto;html=1;" edge="1" parent="WIyWlLk6GJQsqaUBKTNV-1" source="6M3mmVfWSf4sSf63VmGX-13" target="6M3mmVfWSf4sSf63VmGX-17">
          <mxGeometry relative="1" as="geometry" />
        </mxCell>
        <mxCell id="6M3mmVfWSf4sSf63VmGX-13" value="Latam.Feature" style="swimlane;fontStyle=0;childLayout=stackLayout;horizontal=1;startSize=30;horizontalStack=0;resizeParent=1;resizeParentMax=0;resizeLast=0;collapsible=1;marginBottom=0;whiteSpace=wrap;html=1;" vertex="1" parent="WIyWlLk6GJQsqaUBKTNV-1">
          <mxGeometry x="290" y="80" width="200" height="160" as="geometry" />
        </mxCell>
        <mxCell id="6M3mmVfWSf4sSf63VmGX-14" value="&lt;p class=&quot;MsoNormal&quot;&gt;&lt;span style=&quot;mso-ansi-language:ES-CO&quot; lang=&quot;ES-CO&quot;&gt;- Scenarios&lt;br/&gt;/ Casos de pruebas &lt;/span&gt;&lt;/p&gt;&lt;br/&gt;&lt;div&gt;&lt;br/&gt;&lt;/div&gt;" style="text;strokeColor=none;fillColor=none;align=left;verticalAlign=middle;spacingLeft=4;spacingRight=4;overflow=hidden;points=[[0,0.5],[1,0.5]];portConstraint=eastwest;rotatable=0;whiteSpace=wrap;html=1;" vertex="1" parent="6M3mmVfWSf4sSf63VmGX-13">
          <mxGeometry y="30" width="200" height="60" as="geometry" />
        </mxCell>
        <mxCell id="6M3mmVfWSf4sSf63VmGX-15" value="&lt;p class=&quot;MsoNormal&quot;&gt;&lt;span style=&quot;mso-ansi-language:ES-CO&quot; lang=&quot;ES-CO&quot;&gt;- Gherkin&lt;br/&gt;para permitir su fácil interpretación y reutilización de steps&lt;/span&gt;&lt;/p&gt;&lt;br/&gt;&lt;div&gt;&lt;br/&gt;&lt;/div&gt;" style="text;strokeColor=none;fillColor=none;align=left;verticalAlign=middle;spacingLeft=4;spacingRight=4;overflow=hidden;points=[[0,0.5],[1,0.5]];portConstraint=eastwest;rotatable=0;whiteSpace=wrap;html=1;" vertex="1" parent="6M3mmVfWSf4sSf63VmGX-13">
          <mxGeometry y="90" width="200" height="70" as="geometry" />
        </mxCell>
        <mxCell id="6M3mmVfWSf4sSf63VmGX-17" value="List" style="swimlane;fontStyle=0;childLayout=stackLayout;horizontal=1;startSize=30;horizontalStack=0;resizeParent=1;resizeParentMax=0;resizeLast=0;collapsible=1;marginBottom=0;whiteSpace=wrap;html=1;" vertex="1" parent="WIyWlLk6GJQsqaUBKTNV-1">
          <mxGeometry x="320" y="270" width="140" height="120" as="geometry" />
        </mxCell>
        <mxCell id="6M3mmVfWSf4sSf63VmGX-18" value="Item 1" style="text;strokeColor=none;fillColor=none;align=left;verticalAlign=middle;spacingLeft=4;spacingRight=4;overflow=hidden;points=[[0,0.5],[1,0.5]];portConstraint=eastwest;rotatable=0;whiteSpace=wrap;html=1;" vertex="1" parent="6M3mmVfWSf4sSf63VmGX-17">
          <mxGeometry y="30" width="140" height="30" as="geometry" />
        </mxCell>
        <mxCell id="6M3mmVfWSf4sSf63VmGX-19" value="Item 2" style="text;strokeColor=none;fillColor=none;align=left;verticalAlign=middle;spacingLeft=4;spacingRight=4;overflow=hidden;points=[[0,0.5],[1,0.5]];portConstraint=eastwest;rotatable=0;whiteSpace=wrap;html=1;" vertex="1" parent="6M3mmVfWSf4sSf63VmGX-17">
          <mxGeometry y="60" width="140" height="30" as="geometry" />
        </mxCell>
        <mxCell id="6M3mmVfWSf4sSf63VmGX-20" value="Item 3" style="text;strokeColor=none;fillColor=none;align=left;verticalAlign=middle;spacingLeft=4;spacingRight=4;overflow=hidden;points=[[0,0.5],[1,0.5]];portConstraint=eastwest;rotatable=0;whiteSpace=wrap;html=1;" vertex="1" parent="6M3mmVfWSf4sSf63VmGX-17">
          <mxGeometry y="90" width="140" height="30" as="geometry" />
        </mxCell>
      </root>
    </mxGraphModel>
  </diagram>
</mxfile>
